<?xml version="1.0" encoding="UTF-8" standalone="no"?>
<!-- Created with Inkscape (http://www.inkscape.org/) -->

<svg
   xmlns:dc="http://purl.org/dc/elements/1.1/"
   xmlns:cc="http://creativecommons.org/ns#"
   xmlns:rdf="http://www.w3.org/1999/02/22-rdf-syntax-ns#"
   xmlns:svg="http://www.w3.org/2000/svg"
   xmlns="http://www.w3.org/2000/svg"
   xmlns:sodipodi="http://sodipodi.sourceforge.net/DTD/sodipodi-0.dtd"
   xmlns:inkscape="http://www.inkscape.org/namespaces/inkscape"
   width="201"
   height="225.68504"
   viewBox="0 0 53.181229 59.712522"
   version="1.1"
   id="svg8"
   sodipodi:docname="menu.svg"
   inkscape:version="0.92.4 (5da689c313, 2019-01-14)">
  <defs
     id="defs2" />
  <sodipodi:namedview
     id="base"
     pagecolor="#ffffff"
     bordercolor="#666666"
     borderopacity="1.0"
     inkscape:pageopacity="0.0"
     inkscape:pageshadow="2"
     inkscape:zoom="0.58961278"
     inkscape:cx="464.55488"
     inkscape:cy="278.3695"
     inkscape:document-units="mm"
     inkscape:current-layer="layer1"
     showgrid="false"
     inkscape:window-width="1366"
     inkscape:window-height="697"
     inkscape:window-x="-8"
     inkscape:window-y="-8"
     inkscape:window-maximized="1"
     units="px"
     inkscape:pagecheckerboard="true" />
  <metadata
     id="metadata5">
    <rdf:RDF>
      <cc:Work
         rdf:about="">
        <dc:format>image/svg+xml</dc:format>
        <dc:type
           rdf:resource="http://purl.org/dc/dcmitype/StillImage" />
        <dc:title></dc:title>
      </cc:Work>
    </rdf:RDF>
  </metadata>
  <g
     inkscape:label="Layer 1"
     inkscape:groupmode="layer"
     id="layer1"
     transform="translate(0,-237.28699)">
    <path
       style="fill:#000000;stroke:#000000;stroke-width:1.08332086;stroke-opacity:1;opacity:0.97"
       d="m 19.315341,283.04471 c 0,-2.06351 0.722217,-2.16664 15.166505,-2.16664 14.444287,0 15.166466,0.10318 15.166466,2.16664 0,2.06346 -0.722179,2.16662 -15.166466,2.16662 -14.444288,0 -15.166505,-0.10317 -15.166505,-2.16662 z M 1.9822194,265.71156 c 0,-2.10098 0.7222169,-2.16665 23.8330466,-2.16665 23.110867,0 23.833046,0.0653 23.833046,2.16665 0,2.101 -0.722179,2.16668 -23.833046,2.16668 -23.1108297,0 -23.8330466,-0.0653 -23.8330466,-2.16668 z m 0,-17.33312 c 0,-2.06349 0.7222169,-2.16666 15.1665096,-2.16666 14.444245,0 15.166462,0.10317 15.166462,2.16666 0,2.06343 -0.722217,2.16661 -15.166462,2.16661 -14.4442927,0 -15.1665096,-0.10318 -15.1665096,-2.16661 z"
       id="path826"
       inkscape:connector-curvature="0" />
  </g>
</svg>
