<svg xmlns="http://www.w3.org/2000/svg" 
width="201" height="225.685" viewBox="0 0 53.181 59.713">
<path style="fill:#000;stroke:#000;stroke-width:1.08332086;stroke-opacity:1;opacity:.97" d="M19.315 283.045c0-2.064.723-2.167 15.167-2.167 14.444 0 15.166.103 15.166 2.167 0 2.063-.722 2.166-15.166 2.166s-15.167-.103-15.167-2.166zM1.982 265.712c0-2.101.722-2.167 23.833-2.167 23.111 0 23.833.065 23.833 2.167 0 2.1-.722 2.166-23.833 2.166-23.11 0-23.833-.065-23.833-2.166zm0-17.334c0-2.063.722-2.166 15.167-2.166 14.444 0 15.166.103 15.166 2.166 0 2.064-.722 2.167-15.166 2.167-14.445 0-15.167-.103-15.167-2.167z" 
transform="translate(0 -237.287)"/>
</svg>