<?xml version="1.0" encoding="UTF-8" standalone="no"?>
<!-- Created with Inkscape (http://www.inkscape.org/) -->

<svg
   xmlns:dc="http://purl.org/dc/elements/1.1/"
   xmlns:cc="http://creativecommons.org/ns#"
   xmlns:rdf="http://www.w3.org/1999/02/22-rdf-syntax-ns#"
   xmlns:svg="http://www.w3.org/2000/svg"
   xmlns="http://www.w3.org/2000/svg"
   xmlns:sodipodi="http://sodipodi.sourceforge.net/DTD/sodipodi-0.dtd"
   xmlns:inkscape="http://www.inkscape.org/namespaces/inkscape"
   width="210mm"
   height="297mm"
   viewBox="0 0 210 297"
   version="1.1"
   id="svg8"
   sodipodi:docname="menuLine.svg"
   inkscape:version="0.92.4 (5da689c313, 2019-01-14)">
  <defs
     id="defs2" />
  <sodipodi:namedview
     id="base"
     pagecolor="#ffffff"
     bordercolor="#666666"
     borderopacity="1.0"
     inkscape:pageopacity="0.0"
     inkscape:pageshadow="2"
     inkscape:zoom="5.6"
     inkscape:cx="383.72351"
     inkscape:cy="642.11348"
     inkscape:document-units="mm"
     inkscape:current-layer="layer1"
     showgrid="false"
     inkscape:window-width="1366"
     inkscape:window-height="697"
     inkscape:window-x="-8"
     inkscape:window-y="-8"
     inkscape:window-maximized="1" />
  <metadata
     id="metadata5">
    <rdf:RDF>
      <cc:Work
         rdf:about="">
        <dc:format>image/svg+xml</dc:format>
        <dc:type
           rdf:resource="http://purl.org/dc/dcmitype/StillImage" />
        <dc:title></dc:title>
      </cc:Work>
    </rdf:RDF>
  </metadata>
  <g
     inkscape:label="Layer 1"
     inkscape:groupmode="layer"
     id="layer1">
    <path
       style="fill:none;stroke:#000000;stroke-width:0.1;stroke-miterlimit:4;stroke-dasharray:none;stroke-opacity:1"
       d="m 102.92291,130.10461 c 0,-0.50397 0.17639,-0.52916 3.70417,-0.52916 3.52778,0 3.70416,0.0252 3.70416,0.52916 0,0.50397 -0.17638,0.52917 -3.70416,0.52917 -3.52778,0 -3.70417,-0.0252 -3.70417,-0.52917 z m -4.233328,-4.23333 c 0,-0.51313 0.17639,-0.52917 5.820828,-0.52917 5.64445,0 5.82083,0.016 5.82083,0.52917 0,0.51313 -0.17638,0.52917 -5.82083,0.52917 -5.644438,0 -5.820828,-0.016 -5.820828,-0.52917 z m 0,-4.23333 c 0,-0.50397 0.17639,-0.52917 3.704168,-0.52917 3.52777,0 3.70416,0.0252 3.70416,0.52917 0,0.50396 -0.17639,0.52916 -3.70416,0.52916 -3.527778,0 -3.704168,-0.0252 -3.704168,-0.52916 z"
       id="path826"
       inkscape:connector-curvature="0" />
  </g>
</svg>
